<?xml version="1.0" standalone="no"?>
<!DOCTYPE svg PUBLIC "-//W3C//DTD SVG 20010904//EN"
 "http://www.w3.org/TR/2001/REC-SVG-20010904/DTD/svg10.dtd">
<svg version="1.0" xmlns="http://www.w3.org/2000/svg"
 width="74.000000pt" height="74.000000pt" viewBox="0 0 1024.000000 1024.000000"
 preserveAspectRatio="xMidYMid meet">

<g transform="translate(0.000000,1024.000000) scale(0.100000,-0.100000)"
fill="#2A4F73" stroke="none">
<path d="M5005 9440 c-132 -14 -297 -48 -406 -85 -304 -103 -481 -272 -559
-535 -13 -41 -24 -77 -26 -78 -1 -2 -33 3 -71 11 -130 29 -294 40 -413 28
-270 -28 -468 -114 -602 -260 -221 -241 -235 -568 -35 -788 50 -55 172 -141
264 -187 59 -29 212 -76 250 -76 22 0 24 -3 18 -27 -11 -48 -68 -133 -118
-179 -26 -23 -103 -71 -170 -105 -154 -78 -224 -127 -312 -220 -151 -160 -192
-314 -135 -504 36 -116 44 -188 26 -247 -46 -160 -231 -190 -303 -49 l-22 43
-26 -28 c-31 -34 -59 -122 -59 -189 0 -70 32 -133 103 -206 l61 -63 -59 -61
c-157 -163 -258 -409 -305 -740 -34 -238 -40 -364 -41 -835 l-1 -475 -33 -48
c-102 -148 -109 -348 -21 -576 52 -133 127 -233 227 -303 51 -34 193 -103 238
-114 18 -5 73 -49 145 -120 299 -292 641 -533 1014 -715 225 -110 626 -263
851 -324 80 -22 100 -24 106 -13 124 215 233 305 429 357 41 10 136 34 210 51
74 18 169 46 210 63 79 33 230 129 318 204 29 25 55 43 58 40 8 -7 -36 -116
-72 -177 -44 -75 -144 -167 -225 -207 -35 -17 -127 -50 -204 -73 -162 -48
-240 -87 -305 -150 -56 -55 -108 -154 -93 -178 6 -11 36 -20 84 -27 91 -14
135 -32 188 -80 23 -21 43 -36 45 -34 2 2 16 24 31 49 71 113 194 212 313 251
129 42 230 97 290 157 64 64 100 128 162 285 36 90 49 113 84 142 74 60 177
97 161 57 -3 -9 -15 -55 -27 -102 -96 -404 -141 -482 -339 -592 -183 -101
-205 -115 -255 -164 -65 -63 -114 -139 -114 -176 0 -15 1 -28 3 -28 1 0 26 9
55 20 29 11 69 20 91 20 53 0 145 -33 201 -74 26 -19 62 -42 80 -51 30 -15 33
-15 52 2 11 9 46 69 78 133 63 122 84 148 228 278 71 64 98 97 122 146 36 73
39 112 26 346 -13 208 4 257 146 445 76 100 102 158 127 290 l18 90 23 -45
c19 -36 24 -65 27 -145 5 -128 -14 -198 -91 -333 -75 -132 -84 -177 -68 -370
13 -164 5 -265 -26 -354 -25 -70 -54 -113 -134 -196 -158 -164 -206 -268 -159
-341 7 -12 24 0 80 56 38 39 105 98 148 131 43 32 95 78 115 100 55 61 108
175 132 285 8 34 14 34 69 0 l44 -26 -28 -77 c-15 -42 -30 -103 -34 -136 -5
-50 -3 -66 17 -104 21 -40 39 -54 173 -134 214 -128 268 -129 332 -3 23 46
275 645 600 1428 l106 255 81 0 c131 0 234 53 276 140 14 27 39 56 65 74 51
35 102 109 110 159 7 40 6 39 56 113 55 81 71 137 76 268 5 118 -5 194 -56
430 -30 136 -28 211 8 307 37 99 157 389 271 653 105 243 114 274 108 384 -3
67 -9 92 -32 130 -83 141 -119 158 -560 251 -89 18 -234 52 -322 74 -127 32
-744 172 -1084 246 -85 19 -127 19 -188 -1 -71 -23 -116 -64 -154 -142 -29
-59 -33 -75 -32 -147 1 -46 8 -98 17 -122 l16 -43 -58 -127 c-88 -192 -132
-276 -140 -267 -4 5 -14 25 -21 44 -30 79 -123 256 -172 327 -69 101 -210 247
-306 320 -42 31 -78 58 -80 59 -2 1 17 39 42 85 76 141 82 275 19 453 -108
311 -105 291 -58 403 53 123 64 170 75 325 9 133 11 140 54 232 25 52 57 128
71 168 l26 73 167 1 c242 1 391 35 549 126 205 117 307 276 306 480 0 77 -3
94 -32 152 -35 71 -79 113 -158 148 -38 18 -67 22 -143 22 -124 0 -209 -23
-465 -130 -110 -46 -206 -84 -212 -84 -15 0 -15 -2 -48 225 -36 248 -87 499
-129 631 -44 136 -86 191 -172 223 -62 24 -180 28 -261 11 -45 -10 -54 -8
-115 19 -147 67 -299 89 -483 71z m277 -171 c29 -6 89 -27 132 -46 99 -45 142
-50 237 -29 99 22 143 10 176 -50 46 -82 111 -387 171 -791 16 -106 27 -193
26 -193 -2 0 -70 13 -151 30 -247 49 -542 79 -786 80 -71 0 -94 4 -115 19
-121 85 -499 285 -667 351 -44 17 -84 35 -88 40 -12 11 46 177 87 246 100 171
310 283 636 339 95 16 273 18 342 4z m-1427 -679 c118 -24 291 -85 445 -156
135 -61 129 -58 430 -227 200 -111 293 -158 395 -199 27 -11 81 -35 118 -54
170 -85 511 -234 536 -234 6 0 11 -4 11 -10 0 -5 -3 -10 -7 -10 -35 0 -352 85
-593 158 -162 49 -344 102 -405 117 -501 121 -824 138 -1008 51 -115 -55 -190
-144 -248 -296 -35 -94 -36 -95 -67 -92 -57 4 -215 60 -281 99 -82 49 -175
143 -209 213 -24 49 -27 67 -27 155 0 94 2 104 35 170 42 85 138 184 230 238
172 100 400 127 645 77z m3140 -310 c43 -40 55 -73 55 -152 0 -57 -6 -85 -25
-127 -53 -113 -209 -224 -361 -256 -111 -24 -299 -19 -426 10 -187 42 -394
117 -710 259 -65 29 -74 46 -24 46 44 0 317 -36 426 -56 92 -18 188 -14 232 8
25 12 58 64 58 92 0 8 23 18 58 26 66 14 234 70 342 112 184 73 323 87 375 38z
m-2040 -501 c255 -80 524 -156 634 -179 55 -11 173 -27 262 -34 88 -8 163 -16
165 -19 2 -2 -4 -11 -13 -19 -12 -10 -58 -19 -138 -26 -73 -6 -142 -19 -176
-31 -61 -23 -125 -83 -157 -146 -42 -84 -53 -227 -27 -345 23 -104 20 -145
-12 -170 -26 -21 -35 -22 -130 -17 -95 5 -104 4 -113 -14 -29 -53 54 -93 183
-88 77 4 89 7 124 35 21 17 46 46 56 65 19 35 19 60 1 272 -4 43 -3 77 2 77 5
-1 20 -7 34 -15 14 -8 45 -14 68 -15 37 0 50 6 78 34 39 39 47 82 13 71 -42
-14 -112 -7 -138 13 -38 29 -34 83 8 125 31 31 33 32 145 35 l113 4 -13 -76
c-7 -41 -16 -126 -20 -188 -12 -202 -54 -312 -200 -528 -39 -58 -96 -143 -127
-190 -157 -235 -209 -290 -316 -331 -163 -61 -379 38 -632 290 -123 123 -185
208 -260 354 -33 64 -63 117 -66 117 -11 0 7 -201 23 -263 53 -205 242 -422
493 -567 50 -29 91 -56 91 -61 0 -4 -5 -20 -12 -36 -8 -18 -14 -127 -19 -303
-6 -248 -20 -390 -39 -390 -3 0 -31 39 -64 86 -82 121 -171 230 -323 396 -248
271 -344 399 -430 573 l-44 90 30 25 c85 73 119 189 145 496 11 132 15 153 35
173 28 28 21 37 -36 46 -65 9 -137 50 -168 95 -39 56 -67 147 -72 236 -6 91 5
138 44 185 78 92 150 67 213 -74 50 -114 52 -117 77 -123 55 -14 185 63 345
203 51 45 113 109 138 142 25 33 50 60 55 61 6 0 82 -23 170 -51z m-1066
-1625 c92 -191 227 -370 415 -554 31 -30 56 -57 56 -60 0 -3 -31 -4 -69 -2
-54 3 -78 0 -116 -17 -70 -31 -210 -127 -281 -194 l-62 -58 -16 48 c-50 156
-130 483 -165 674 l-18 97 58 51 c32 28 72 71 90 96 18 25 36 45 40 45 4 0 34
-57 68 -126z m-385 -306 c40 -199 96 -399 165 -589 71 -195 86 -212 149 -166
157 114 199 142 277 186 170 93 255 103 378 43 203 -100 384 -461 454 -903 22
-144 22 -436 -1 -593 -21 -146 -65 -345 -117 -530 -22 -76 -37 -141 -34 -144
7 -7 103 -4 116 3 13 8 106 302 139 440 103 425 100 776 -10 1168 -35 123 -36
143 -14 218 29 98 95 208 221 363 l23 28 72 -40 c40 -22 111 -63 157 -91 131
-79 169 -66 158 53 -12 119 -74 296 -181 516 -25 51 -44 95 -41 98 5 5 218
-84 320 -135 242 -121 443 -315 569 -546 48 -88 114 -248 141 -340 l16 -56
-117 -258 c-64 -142 -120 -262 -124 -266 -4 -5 -22 36 -40 90 -18 54 -55 153
-81 219 -27 67 -67 188 -90 270 -42 155 -45 164 -58 164 -13 0 -39 -65 -51
-128 -17 -83 0 -199 49 -343 83 -241 107 -379 92 -525 -17 -160 -52 -265 -173
-516 -69 -143 -73 -148 -102 -148 -99 0 -300 -73 -486 -174 -303 -167 -330
-179 -385 -173 -72 7 -472 107 -660 165 -139 43 -557 191 -593 211 -8 5 -13
40 -16 111 -4 118 -24 189 -78 273 l-32 50 3 241 c3 329 -16 509 -76 701 -47
148 -128 279 -239 386 -73 69 -109 95 -118 81 -3 -5 26 -70 64 -145 77 -154
127 -296 166 -478 24 -112 27 -151 31 -403 5 -269 5 -279 -13 -272 -109 42
-313 71 -429 61 -213 -18 -449 -95 -618 -202 -21 -13 -42 -21 -45 -18 -12 12
-14 526 -3 736 35 669 136 907 476 1128 90 58 324 166 490 225 72 26 155 57
185 70 30 13 62 25 70 25 12 1 22 -32 44 -141z m1696 36 c46 -39 113 -138 164
-244 49 -99 83 -196 74 -205 -3 -3 -25 3 -49 13 -97 43 -149 55 -177 42 -63
-28 -120 -74 -162 -131 l-45 -60 -3 33 c-7 66 36 464 58 541 11 36 12 37 60
37 38 0 55 -6 80 -26z m2051 -183 c140 -33 308 -71 374 -85 66 -14 266 -61
445 -105 179 -44 407 -98 507 -121 244 -55 278 -66 302 -97 57 -72 -17 -193
-118 -193 -17 0 -303 67 -634 149 -331 82 -701 172 -822 200 -312 73 -361 88
-390 123 -31 36 -34 105 -7 137 15 18 68 51 83 51 3 0 120 -27 260 -59z m-282
-348 c31 -9 58 -18 60 -19 1 -2 -34 -83 -79 -181 -46 -98 -118 -254 -160 -348
-43 -93 -94 -206 -115 -250 -21 -44 -120 -258 -220 -475 -182 -393 -323 -691
-331 -699 -4 -4 -124 30 -124 34 0 2 30 67 66 146 194 421 803 1757 815 1787
10 26 16 27 88 5z m1782 -442 c6 -5 -40 -120 -242 -601 -101 -241 -416 -979
-689 -1615 -142 -330 -289 -674 -328 -765 -150 -353 -334 -775 -340 -782 -4
-4 -32 10 -62 30 -83 57 -88 40 160 607 65 149 191 439 280 645 89 206 204
472 255 590 51 118 143 334 205 480 62 146 142 333 177 415 36 83 146 344 245
580 99 237 184 435 189 441 7 9 27 8 77 -3 37 -8 70 -18 73 -22z m-1187 -201
c694 -194 707 -197 709 -201 1 -2 -14 -36 -33 -75 l-35 -72 -205 58 c-113 32
-313 88 -445 125 -439 122 -629 176 -633 179 -1 2 7 28 19 57 11 30 25 64 30
76 8 22 10 22 50 8 23 -9 268 -78 543 -155z m-443 -171 c129 -38 407 -122 619
-186 212 -64 389 -119 394 -124 11 -10 -32 -119 -50 -126 -6 -2 -86 18 -176
45 -89 28 -305 91 -478 142 -369 108 -613 181 -619 186 -8 7 52 134 64 134 6
0 117 -32 246 -71z m-36 -276 c611 -192 930 -295 938 -302 4 -4 -6 -38 -22
-74 l-30 -66 -43 13 c-24 7 -196 63 -383 124 -187 61 -455 147 -595 192 -140
45 -256 83 -258 85 -1 1 12 32 29 69 25 53 35 66 48 60 9 -4 151 -49 316 -101z
m-72 -267 c199 -68 481 -163 627 -211 146 -48 268 -89 272 -92 6 -3 -37 -109
-51 -126 -7 -7 -1259 406 -1272 421 -8 8 45 132 56 132 4 0 170 -56 368 -124z
m-8 -291 c259 -91 542 -191 630 -222 88 -31 161 -57 163 -58 1 -1 -11 -33 -27
-71 -18 -44 -33 -68 -42 -66 -30 7 -476 165 -709 250 -135 49 -310 113 -390
142 -80 29 -149 57 -154 61 -9 8 44 140 53 134 4 -1 218 -78 476 -170z m-3865
144 c30 -6 80 -23 110 -37 72 -34 164 -125 180 -179 14 -47 6 -117 -13 -110
-87 33 -324 41 -443 14 -193 -42 -417 -181 -529 -327 -94 -122 -140 -261 -117
-352 6 -23 9 -44 7 -46 -1 -2 -30 23 -62 55 -142 140 -197 357 -133 526 29 76
108 175 197 246 93 74 265 162 378 191 134 36 298 43 425 19z m5448 -199 c17
-58 33 -128 36 -156 9 -78 -10 -191 -42 -244 l-27 -45 -7 70 c-3 39 -18 113
-33 165 -46 165 -45 181 18 340 l9 25 8 -25 c5 -14 22 -72 38 -130z m-1913
-117 c137 -53 421 -160 630 -239 209 -78 380 -146 380 -151 -1 -17 -54 -123
-62 -123 -4 0 -78 27 -163 59 -400 154 -643 246 -853 325 -126 47 -234 89
-241 93 -10 6 -7 22 15 71 15 34 31 62 36 62 4 0 120 -43 258 -97z m1750 -85
c3 -24 13 -79 22 -123 9 -44 17 -114 17 -155 0 -62 -5 -84 -27 -127 -15 -29
-32 -53 -37 -53 -6 0 -10 21 -10 48 0 26 -9 84 -20 130 -11 46 -20 104 -20
129 0 45 46 193 60 193 5 0 11 -19 15 -42z m-5138 -82 c37 -13 158 -60 268
-104 302 -121 520 -189 950 -296 262 -65 397 -90 445 -81 36 7 315 148 427
216 283 173 541 204 769 95 102 -49 339 -211 406 -278 60 -60 72 -94 43 -118
-21 -18 -35 -11 -216 115 -181 125 -244 159 -347 186 -115 29 -260 23 -227
-10 6 -6 60 -30 121 -54 61 -24 148 -66 193 -93 107 -63 274 -189 356 -268 54
-50 65 -67 65 -93 0 -26 -5 -34 -23 -38 -35 -9 -64 6 -196 105 -273 203 -412
269 -569 270 -93 0 -79 -49 26 -91 133 -52 255 -124 415 -245 92 -69 172 -135
178 -145 14 -27 8 -70 -12 -82 -27 -17 -62 -1 -235 114 -93 62 -211 132 -262
157 -85 41 -100 45 -187 50 -91 4 -95 4 -95 -16 0 -16 31 -35 158 -97 152 -74
327 -182 372 -230 28 -30 24 -75 -9 -91 -33 -17 -64 -4 -250 100 -85 47 -180
93 -210 102 -87 25 -201 14 -331 -31 -179 -63 -310 -59 -426 12 l-59 37 -395
7 c-217 4 -451 12 -520 19 -564 50 -1161 182 -1331 294 -83 55 -99 128 -51
230 55 117 186 231 364 316 152 73 258 83 395 36z m3323 -96 c365 -144 953
-380 958 -384 6 -7 -50 -136 -60 -136 -6 0 -90 34 -187 76 -97 42 -315 133
-486 201 -170 69 -328 135 -350 147 -94 54 -210 128 -213 135 -5 16 29 83 41
78 7 -3 140 -55 297 -117z m1678 -212 c15 -132 15 -143 -4 -184 -17 -35 -66
-70 -84 -59 -16 10 -12 146 5 203 22 72 53 142 63 142 5 0 14 -46 20 -102z
m-841 -441 c3 -4 -43 -125 -51 -134 -1 -1 -92 38 -202 87 -154 69 -206 97
-229 123 -28 32 -115 168 -115 179 0 5 588 -247 597 -255z m-178 -231 c40 -20
71 -40 69 -44 -2 -4 -14 -35 -28 -70 -14 -34 -27 -62 -30 -62 -3 1 -68 33
-145 73 l-140 72 -3 82 -3 82 104 -48 c57 -27 136 -65 176 -85z m-180 -217
c75 -39 137 -72 138 -73 4 -3 -52 -135 -60 -143 -4 -3 -68 25 -143 62 -125 63
-135 70 -129 92 10 42 46 133 52 133 4 0 67 -32 142 -71z m-1689 -56 c0 -46
-33 -86 -96 -120 -77 -41 -139 -58 -276 -78 -298 -43 -457 -119 -564 -272 -26
-37 -49 -70 -50 -72 -2 -2 -33 8 -71 23 -37 14 -80 30 -96 35 l-27 11 30 48
c65 106 173 203 293 264 99 49 183 65 387 72 102 4 215 13 251 21 65 13 181
64 194 85 12 19 25 10 25 -17z m1587 -219 c72 -38 122 -71 120 -77 -31 -79
-41 -97 -48 -97 -15 0 -227 108 -234 119 -3 6 -1 30 5 53 15 60 18 68 26 68 4
0 63 -30 131 -66z"/>
<path d="M5110 9111 c-105 -39 -161 -69 -358 -190 -197 -121 -198 -129 -7 -91
208 41 354 118 439 231 25 34 46 65 46 70 0 16 -43 9 -120 -20z"/>
<path d="M4960 7611 c-101 -19 -170 -65 -141 -94 7 -7 61 -12 144 -12 116 -1
142 -5 216 -29 67 -22 89 -26 108 -17 80 37 -72 148 -214 156 -37 2 -88 0
-113 -4z"/>
<path d="M4889 7334 c-20 -24 15 -82 75 -121 96 -65 218 -29 250 75 7 21 5 22
-21 15 -15 -4 -67 -8 -114 -8 -77 0 -90 3 -125 28 -47 32 -48 32 -65 11z"/>
<path d="M4983 6584 c-10 -27 14 -60 73 -99 86 -57 147 -77 232 -77 59 0 85 6
127 27 46 22 74 50 62 62 -12 11 -156 45 -251 59 -60 8 -128 22 -150 29 -54
19 -85 19 -93 -1z"/>
<path d="M5144 6321 c21 -24 71 -34 111 -22 l30 8 -30 8 c-16 4 -46 11 -65 16
-56 14 -66 12 -46 -10z"/>
<path d="M2500 7852 c-84 -76 -247 -259 -336 -377 -301 -398 -520 -856 -634
-1330 -75 -309 -105 -576 -104 -920 0 -276 14 -428 65 -704 58 -317 158 -638
284 -916 l27 -60 45 95 c39 82 43 99 35 125 -6 17 -31 86 -56 155 -198 547
-281 1141 -230 1656 61 623 236 1135 551 1619 98 149 247 336 374 467 l114
118 -27 66 c-14 36 -28 68 -30 70 -2 2 -37 -27 -78 -64z"/>
</g>
</svg>
